<svg width="24" height="24" viewBox="0 0 24 24" fill="none" xmlns="http://www.w3.org/2000/svg">
  <path d="M12 2C13.1046 2 14 2.89543 14 4V8C14 9.10457 13.1046 10 12 10C10.8954 10 10 9.10457 10 8V4C10 2.89543 10.8954 2 12 2Z" fill="#8B5A96"/>
  <path d="M12 6C14.2091 6 16 7.79086 16 10V14C16 16.2091 14.2091 18 12 18C9.79086 18 8 16.2091 8 14V10C8 7.79086 9.79086 6 12 6Z" fill="#D4A5A5"/>
  <path d="M4 12C6.20914 12 8 13.7909 8 16V20C8 22.2091 6.20914 24 4 24C1.79086 24 0 22.2091 0 20V16C0 13.7909 1.79086 12 4 12Z" fill="#8B5A96"/>
  <path d="M20 12C17.7909 12 16 13.7909 16 16V20C16 22.2091 17.7909 24 20 24C22.2091 24 24 22.2091 24 20V16C24 13.7909 22.2091 12 20 12Z" fill="#8B5A96"/>
  <circle cx="12" cy="8" r="1" fill="white"/>
  <circle cx="12" cy="16" r="0.5" fill="white"/>
  <circle cx="4" cy="20" r="0.5" fill="white"/>
  <circle cx="20" cy="20" r="0.5" fill="white"/>
  <path d="M8 18L12 14L16 18" stroke="white" stroke-width="1" stroke-linecap="round" stroke-linejoin="round"/>
</svg>